<svg xmlns="http://www.w3.org/2000/svg" viewBox="0 0 420 480" fill="none">
  <defs>
    <linearGradient id="hx-g" x1="40" y1="30" x2="390" y2="460" gradientUnits="userSpaceOnUse">
      <stop offset="0%"   stop-color="#F2694A"/>
      <stop offset="42%"  stop-color="#C8446E"/>
      <stop offset="100%" stop-color="#7B2A7E"/>
    </linearGradient>
  </defs>

  <!-- Face silhouette -->
  <path fill="url(#hx-g)" d="
    M 155,52
    C 198,18 282,28 318,82
    C 344,122 342,170 325,207
    C 314,228 299,240 296,258
    C 304,276 319,297 320,324
    C 315,366 292,406 267,428
    C 246,446 225,452 208,443
    C 196,435 192,422 199,407
    C 213,380 228,358 217,332
    C 204,303 189,275 195,244
    C 201,218 213,197 207,172
    C 198,150 182,132 170,108
    C 158,83 154,66 155,52
    Z
  "/>

  <!-- Brain circuit traces -->
  <g stroke="url(#hx-g)" stroke-width="2.2" stroke-linecap="round" fill="none">
    <path d="M 248,78  C 264,64  290,68  302,82"/>
    <path d="M 258,100 C 272,86  294,88  304,103"/>
    <path d="M 263,124 C 276,112 295,113 303,127"/>
  </g>
  <circle cx="302" cy="82"  r="4" fill="url(#hx-g)"/>
  <circle cx="304" cy="103" r="4" fill="url(#hx-g)"/>
  <circle cx="303" cy="127" r="4" fill="url(#hx-g)"/>

  <!-- H letterform -->
  <rect x="198" y="168" width="21" height="108" rx="5" fill="url(#hx-g)"/>
  <rect x="266" y="168" width="21" height="108" rx="5" fill="url(#hx-g)"/>
  <rect x="198" y="210" width="89" height="21" rx="5" fill="url(#hx-g)"/>

  <!-- Diagonal ribbon -->
  <path d="
    M 192,208
    C 220,196 244,226 270,214
    C 284,208 292,200 298,196
    L 298,218
    C 290,224 280,232 264,226
    C 240,216 216,230 192,232
    Z
  " fill="url(#hx-g)" opacity="0.6"/>

  <!-- Circuit board traces -->
  <g stroke="url(#hx-g)" stroke-width="2.5" stroke-linecap="round" fill="none">
    <line x1="328" y1="142" x2="328" y2="348"/>
    <line x1="328" y1="168" x2="372" y2="168"/>
    <line x1="328" y1="198" x2="388" y2="198"/>
    <line x1="328" y1="228" x2="366" y2="228"/>
    <line x1="328" y1="258" x2="382" y2="258"/>
    <line x1="328" y1="288" x2="362" y2="288"/>
    <line x1="328" y1="318" x2="376" y2="318"/>
    <line x1="328" y1="348" x2="355" y2="348"/>
  </g>
  <g fill="url(#hx-g)">
    <circle cx="328" cy="142" r="5.5"/>
    <circle cx="372" cy="168" r="5.5"/>
    <circle cx="388" cy="198" r="5.5"/>
    <circle cx="366" cy="228" r="5.5"/>
    <circle cx="382" cy="258" r="5.5"/>
    <circle cx="362" cy="288" r="5.5"/>
    <circle cx="376" cy="318" r="5.5"/>
    <circle cx="355" cy="348" r="5.5"/>
  </g>

  <!-- 4-pointed star -->
  <path d="M 368,48 L 374,65 L 391,71 L 374,77 L 368,94 L 362,77 L 345,71 L 362,65 Z" fill="url(#hx-g)"/>
</svg>
